# xmcd
#
# Track frame offsets: 
#        150
#        21225
#        37000
#        50280
#        66737
#        81030
#        101392
#        118705
#        134540
#        155437
#        173780
#        189797
#
# Disc length: 2722 seconds
#
# Revision: 1
# Processed by: cddbd v1.5.2PL0 Copyright (c) Steve Scherf et al.
# Submitted via: ExactAudioCopy v0.99pb5
#
DISCID=9e0aa00c
DTITLE=Mikel Erentxun - Te Dejas Ver
DYEAR=2000
DGENRE=Pop
TTITLE0=Rara Vez
TTITLE1=En Qué Mujer
TTITLE2=California
TTITLE3=La Orilla De Carla
TTITLE4=Por No Decirte Adiós
TTITLE5=A Flor De Piel
TTITLE6=Fácil
TTITLE7=Próxima Estación
TTITLE8=En Silencio
TTITLE9=Contracorriente
TTITLE10=El Invierno Es Mujer
TTITLE11=Que Nadie Me Detenga
EXTD=
EXTT0=
EXTT1=
EXTT2=
EXTT3=
EXTT4=
EXTT5=
EXTT6=
EXTT7=
EXTT8=
EXTT9=
EXTT10=
EXTT11=
PLAYORDER=
